<svg width="42" height="24" viewBox="0 0 42 24" fill="none" xmlns="http://www.w3.org/2000/svg">
<path d="M2.625 0C1.18209 0 0 1.2008 0 2.66667V21.3333C0 22.7991 1.18209 24 2.625 24H39.375C40.8179 24 42 22.7991 42 21.3333V2.66667C42 1.2008 40.8179 0 39.375 0H2.625ZM2.625 1.33333H39.375C40.1135 1.33333 40.6875 1.9164 40.6875 2.66667V21.3333C40.6875 22.0835 40.1135 22.6667 39.375 22.6667H2.625C1.88651 22.6667 1.3125 22.0835 1.3125 21.3333V2.66667C1.3125 1.9164 1.88651 1.33333 2.625 1.33333ZM6.5625 2.66667V3.33333C6.5625 5.18213 5.10121 6.66667 3.28125 6.66667H2.625V17.3333H3.28125C5.10121 17.3333 6.5625 18.8177 6.5625 20.6667V21.3333H35.4375V20.6667C35.4375 18.8177 36.8988 17.3333 38.7188 17.3333H39.375V6.66667H38.7188C36.8988 6.66667 35.4375 5.18213 35.4375 3.33333V2.66667H6.5625ZM7.7417 4H16.2729C13.6007 5.63373 11.8125 8.60573 11.8125 12C11.8125 15.3951 13.6007 18.3667 16.2729 20H7.7417C7.44287 17.9852 5.92077 16.439 3.9375 16.1354V7.86458C5.92077 7.56098 7.44287 6.01467 7.7417 4ZM20.9744 4C25.3389 4 28.875 7.58 28.875 12C28.875 16.4216 25.3389 20 20.9744 20C16.6084 20 13.125 16.4264 13.125 12C13.125 7.5752 16.6084 4 20.9744 4ZM25.6681 4H34.2583C34.5571 6.01467 36.0792 7.56098 38.0625 7.86458V16.1354C36.0792 16.439 34.5571 17.9852 34.2583 20H25.6937C28.3789 18.3671 30.1875 15.3965 30.1875 12C30.1878 11.9107 30.1703 11.822 30.1362 11.7396C30.0406 8.45465 28.2726 5.59133 25.6681 4ZM17.7546 6.66667V6.67969H17.7239V8.01302H19.0723C20.2984 8.01302 20.9196 8.60267 21.1436 9.33333H17.7546V10.6667H21.1436C20.9196 11.3975 20.2984 11.987 19.0723 11.987H17.7239V13.3203H18.0751L22.1228 17.3333L23.038 16.3802L19.8721 13.2396C21.3101 12.9438 22.2351 11.8607 22.4894 10.6667H24.2812V9.33333H22.4894C22.3877 8.85387 22.1696 8.39987 21.8613 8H24.2812V6.66667H17.7546ZM7.875 10.6667C7.1579 10.6667 6.5625 11.2715 6.5625 12C6.5625 12.7284 7.1579 13.3333 7.875 13.3333C8.5921 13.3333 9.1875 12.7284 9.1875 12C9.1875 11.2715 8.5921 10.6667 7.875 10.6667ZM34.125 10.6667C33.4079 10.6667 32.8125 11.2715 32.8125 12C32.8125 12.7284 33.4079 13.3333 34.125 13.3333C34.8421 13.3333 35.4375 12.7284 35.4375 12C35.4375 11.2715 34.8421 10.6667 34.125 10.6667Z" fill="white"/>
</svg>
